REM DIRINDEX 1\2,1\4,1\5,1\6,1\7,1\3\8,1\3\9,1\3\10
REM DIRNAME cjc113,folder01,folder02,folder03,folder04,folder05,folder06,folder07,folder08,folder09
TITLE ""
FILE "DB4500_5th_6C_50.mp3" MP3
  TRACK 01 AUDIO
    TITLE "0:"
    INDEX 01 00:00:00
  TRACK 02 AUDIO
    TITLE "8:cjc113_5306"
    INDEX 01 00:00:05
  TRACK 03 AUDIO
    TITLE "0:"
    INDEX 01 00:01:34
  TRACK 04 AUDIO
    TITLE "9:cjc113_5307"
    INDEX 01 00:01:40
  TRACK 05 AUDIO
    TITLE "0:"
    INDEX 01 00:02:30
  TRACK 06 AUDIO
    TITLE "10:cjc113_5308"
    INDEX 01 00:02:38
  TRACK 07 AUDIO
    TITLE "0:"
    INDEX 01 00:07:33
  TRACK 08 AUDIO
    TITLE "8:cjc113_5309"
    INDEX 01 00:07:66
  TRACK 09 AUDIO
    TITLE "0:"
    INDEX 01 00:08:72
  TRACK 10 AUDIO
    TITLE "9:cjc113_5310"
    INDEX 01 00:09:04
  TRACK 11 AUDIO
    TITLE "0:"
    INDEX 01 00:10:14
  TRACK 12 AUDIO
    TITLE "10:cjc113_5311"
    INDEX 01 00:10:23
  TRACK 13 AUDIO
    TITLE "0:"
    INDEX 01 00:14:31
  TRACK 14 AUDIO
    TITLE "8:cjc113_5312"
    INDEX 01 00:14:68
  TRACK 15 AUDIO
    TITLE "0:"
    INDEX 01 00:16:06
  TRACK 16 AUDIO
    TITLE "9:cjc113_5313"
    INDEX 01 00:16:12
  TRACK 17 AUDIO
    TITLE "0:"
    INDEX 01 00:17:39
  TRACK 18 AUDIO
    TITLE "10:cjc113_5314"
    INDEX 01 00:17:49
  TRACK 19 AUDIO
    TITLE "0:"
    INDEX 01 00:21:66
  TRACK 20 AUDIO
    TITLE "8:cjc113_5315"
    INDEX 01 00:22:32
  TRACK 21 AUDIO
    TITLE "0:"
    INDEX 01 00:23:50
  TRACK 22 AUDIO
    TITLE "9:cjc113_5316"
    INDEX 01 00:23:53
  TRACK 23 AUDIO
    TITLE "0:"
    INDEX 01 00:24:35
  TRACK 24 AUDIO
    TITLE "10:cjc113_5317"
    INDEX 01 00:24:39
  TRACK 25 AUDIO
    TITLE "0:"
    INDEX 01 00:27:34
  TRACK 26 AUDIO
    TITLE "8:cjc113_5318"
    INDEX 01 00:27:69
  TRACK 27 AUDIO
    TITLE "0:"
    INDEX 01 00:29:01
  TRACK 28 AUDIO
    TITLE "9:cjc113_5319"
    INDEX 01 00:29:05
  TRACK 29 AUDIO
    TITLE "0:"
    INDEX 01 00:30:08
  TRACK 30 AUDIO
    TITLE "10:cjc113_5320"
    INDEX 01 00:30:12
  TRACK 31 AUDIO
    TITLE "0:"
    INDEX 01 00:34:32
  TRACK 32 AUDIO
    TITLE "8:cjc113_5321"
    INDEX 01 00:34:69
  TRACK 33 AUDIO
    TITLE "0:"
    INDEX 01 00:36:17
  TRACK 34 AUDIO
    TITLE "9:cjc113_5322"
    INDEX 01 00:36:23
  TRACK 35 AUDIO
    TITLE "0:"
    INDEX 01 00:37:22
  TRACK 36 AUDIO
    TITLE "10:cjc113_5323"
    INDEX 01 00:37:28
  TRACK 37 AUDIO
    TITLE "0:"
    INDEX 01 00:41:16
  TRACK 38 AUDIO
    TITLE "8:cjc113_5324"
    INDEX 01 00:41:55
  TRACK 39 AUDIO
    TITLE "0:"
    INDEX 01 00:42:66
  TRACK 40 AUDIO
    TITLE "9:cjc113_5325"
    INDEX 01 00:42:72
  TRACK 41 AUDIO
    TITLE "0:"
    INDEX 01 00:44:22
  TRACK 42 AUDIO
    TITLE "10:cjc113_5326"
    INDEX 01 00:44:28
  TRACK 43 AUDIO
    TITLE "0:"
    INDEX 01 00:47:40
  TRACK 44 AUDIO
    TITLE "8:cjc113_5327"
    INDEX 01 00:48:02
  TRACK 45 AUDIO
    TITLE "0:"
    INDEX 01 00:49:10
  TRACK 46 AUDIO
    TITLE "9:cjc113_5328"
    INDEX 01 00:49:12
  TRACK 47 AUDIO
    TITLE "0:"
    INDEX 01 00:50:41
  TRACK 48 AUDIO
    TITLE "10:cjc113_5329"
    INDEX 01 00:50:44
  TRACK 49 AUDIO
    TITLE "0:"
    INDEX 01 00:55:59
  TRACK 50 AUDIO
    TITLE "8:cjc113_5330"
    INDEX 01 00:56:25
  TRACK 51 AUDIO
    TITLE "0:"
    INDEX 01 00:57:21
  TRACK 52 AUDIO
    TITLE "9:cjc113_5331"
    INDEX 01 00:57:23
  TRACK 53 AUDIO
    TITLE "0:"
    INDEX 01 00:59:00
  TRACK 54 AUDIO
    TITLE "10:cjc113_5332"
    INDEX 01 00:59:04
  TRACK 55 AUDIO
    TITLE "0:"
    INDEX 01 01:02:30
  TRACK 56 AUDIO
    TITLE "8:cjc113_5333"
    INDEX 01 01:02:65
  TRACK 57 AUDIO
    TITLE "0:"
    INDEX 01 01:04:00
  TRACK 58 AUDIO
    TITLE "9:cjc113_5334"
    INDEX 01 01:04:05
  TRACK 59 AUDIO
    TITLE "0:"
    INDEX 01 01:05:17
  TRACK 60 AUDIO
    TITLE "10:cjc113_5335"
    INDEX 01 01:05:22
  TRACK 61 AUDIO
    TITLE "0:"
    INDEX 01 01:08:36
  TRACK 62 AUDIO
    TITLE "8:cjc113_5336"
    INDEX 01 01:09:01
  TRACK 63 AUDIO
    TITLE "0:"
    INDEX 01 01:10:00
  TRACK 64 AUDIO
    TITLE "9:cjc113_5337"
    INDEX 01 01:10:06
  TRACK 65 AUDIO
    TITLE "0:"
    INDEX 01 01:11:13
  TRACK 66 AUDIO
    TITLE "10:cjc113_5338"
    INDEX 01 01:11:17
  TRACK 67 AUDIO
    TITLE "0:"
    INDEX 01 01:13:24
